<?xml version="1.0" standalone="no"?>
<!DOCTYPE svg PUBLIC "-//W3C//DTD SVG 20010904//EN"
 "http://www.w3.org/TR/2001/REC-SVG-20010904/DTD/svg10.dtd">
<svg version="1.0" xmlns="http://www.w3.org/2000/svg"
 width="500.000000pt" height="500.000000pt" viewBox="0 0 500.000000 500.000000"
 preserveAspectRatio="xMidYMid meet">

<g transform="translate(0.000000,500.000000) scale(0.100000,-0.100000)"
fill="#000000" stroke="none">
<path d="M2446 4928 c-167 -236 -307 -531 -350 -742 -23 -108 -21 -263 5 -367
29 -116 101 -262 204 -407 48 -68 88 -122 90 -120 2 2 -4 46 -12 98 -21 140
-14 216 31 303 20 40 52 89 70 111 l33 39 48 -67 c73 -102 88 -150 94 -300 l6
-130 69 103 c179 269 233 466 191 702 -37 214 -166 487 -348 742 -39 53 -74
97 -78 97 -4 0 -28 -28 -53 -62z m115 -200 c123 -191 231 -437 260 -593 18
-96 6 -246 -26 -342 -15 -46 -33 -91 -41 -100 -12 -16 -14 -15 -29 20 -37 89
-177 267 -210 267 -37 0 -203 -220 -220 -292 -4 -16 -11 -28 -15 -28 -11 0
-57 110 -74 178 -50 191 -17 385 110 652 57 120 173 320 185 320 4 0 31 -37
60 -82z"/>
<path d="M2459 3564 c-10 -13 -13 -56 -10 -190 l3 -174 -639 -2 -638 -3 0 -25
c0 -20 -6 -26 -28 -28 l-27 -3 0 -877 c0 -962 1 -977 60 -1154 47 -141 127
-282 211 -373 24 -26 38 -49 33 -54 -5 -4 -36 -14 -69 -20 -178 -38 -361 -117
-413 -179 -112 -134 13 -265 338 -354 814 -222 2440 -140 2750 139 87 78 89
155 5 232 -69 63 -196 117 -370 156 -117 26 -111 22 -77 58 111 120 206 299
252 479 36 138 41 298 38 1168 l-3 835 -662 3 -663 2 0 180 c0 167 -1 180 -19
190 -28 15 -57 12 -72 -6z m-9 -807 l0 -332 -62 -42 c-144 -95 -269 -136 -418
-136 -210 1 -432 93 -650 270 l-85 69 -3 252 -2 252 610 0 610 0 0 -333z
m1320 -57 l0 -391 -67 54 c-305 243 -607 332 -887 261 -37 -9 -110 -38 -161
-64 l-93 -46 -4 280 c-2 155 -2 284 0 289 2 4 275 7 608 7 l604 0 0 -390z
m-591 -186 c169 -38 367 -151 534 -304 l59 -53 -5 -421 c-4 -459 -7 -481 -71
-645 -119 -301 -384 -534 -701 -618 -97 -26 -110 -27 -443 -31 -374 -4 -461 2
-596 45 -174 55 -318 145 -442 276 -121 127 -196 256 -251 434 l-27 88 -4 579
c-3 570 -3 579 16 565 140 -102 194 -137 288 -184 153 -76 273 -107 429 -108
83 -1 142 4 190 16 100 25 254 104 365 188 111 83 174 121 250 150 127 49 262
56 409 23z m-1575 -1973 c135 -93 282 -154 451 -188 77 -15 142 -18 450 -17
333 0 368 2 462 22 164 36 339 114 454 203 l36 28 119 -24 c237 -49 414 -126
414 -179 0 -24 -65 -72 -141 -104 -162 -67 -445 -122 -799 -154 -193 -17 -905
-17 -1100 0 -392 35 -701 100 -853 179 -110 58 -112 96 -11 150 90 48 234 90
443 132 3 1 36 -21 75 -48z"/>
<path d="M2302 2130 c-43 -49 -43 -50 -39 -117 l3 -68 2 68 2 67 43 1 42 2
-37 6 -38 6 36 38 35 37 145 0 144 0 0 -139 0 -140 -35 -58 c-19 -32 -35 -65
-35 -73 0 -11 2 -12 8 -3 6 10 12 10 28 -1 27 -20 6 -43 -25 -27 -19 10 -21 9
-20 -11 0 -13 3 -17 6 -10 2 6 9 12 14 12 6 0 7 -4 4 -10 -10 -16 11 -12 25 5
19 23 30 18 30 -15 l0 -30 -125 0 -125 0 0 60 0 59 68 4 67 3 -67 2 -68 2 0
60 0 59 63 4 62 3 -65 2 c-37 1 -71 7 -78 12 -9 7 -9 7 -2 -2 16 -19 12 -28
-14 -28 -14 0 -28 -4 -31 -10 -3 -5 -24 -10 -45 -10 -21 0 -42 5 -45 10 -3 6
-17 10 -31 10 -24 0 -34 23 -14 33 6 3 5 4 -2 3 -10 -2 -13 -43 -13 -171 0
-128 3 -169 13 -171 7 -1 8 0 2 3 -31 15 2 23 95 23 87 0 105 3 105 15 0 13
21 15 130 15 l130 0 0 47 c0 37 9 62 46 125 25 43 52 78 60 78 8 0 27 20 42
44 22 35 28 55 27 102 0 67 -20 83 -49 40 -16 -25 -15 -26 16 -42 26 -14 29
-18 17 -28 -8 -6 -50 -71 -93 -143 -43 -73 -81 -133 -85 -133 -10 1 -41 27
-41 35 0 7 124 219 143 242 7 9 15 10 31 2 18 -9 18 -8 -3 9 -15 12 -21 24
-16 32 5 9 4 11 -3 6 -7 -4 -12 -13 -12 -21 0 -7 -17 -42 -37 -77 l-38 -63 -3
133 -3 132 -152 0 -152 0 -43 -50z m518 -39 c0 -24 -18 -37 -31 -24 -13 13 -1
43 17 43 8 0 14 -9 14 -19z m-23 -123 c-14 -23 -31 -44 -38 -47 -10 -3 -9 2 2
20 9 13 21 34 28 47 6 12 17 22 22 22 6 0 0 -19 -14 -42z m-567 -78 c0 -5 20
-10 44 -10 25 0 48 5 51 10 3 6 17 10 31 10 l24 0 0 -115 0 -115 -100 0 -100
0 0 115 0 115 25 0 c14 0 25 -4 25 -10z m-20 -240 c0 -5 -7 -10 -15 -10 -8 0
-15 5 -15 10 0 6 7 10 15 10 8 0 15 -4 15 -10z m120 0 c0 -5 -22 -10 -49 -10
-28 0 -53 5 -56 10 -4 6 15 10 49 10 31 0 56 -4 56 -10z m50 0 c0 -5 -9 -10
-20 -10 -11 0 -20 5 -20 10 0 6 9 10 20 10 11 0 20 -4 20 -10z"/>
<path d="M2250 1846 c0 -21 6 -25 43 -28 23 -3 50 -8 60 -12 9 -5 17 -4 17 1
0 5 -6 10 -12 11 -7 1 -32 5 -55 8 -63 9 -56 32 10 37 l52 3 -57 2 c-55 2 -58
1 -58 -22z"/>
<path d="M2293 1843 c9 -2 25 -2 35 0 9 3 1 5 -18 5 -19 0 -27 -2 -17 -5z"/>
<path d="M2200 1758 c0 -18 -3 -44 -7 -57 -6 -22 -5 -23 18 -10 13 7 51 17 84
20 l60 7 -60 -2 c-33 -1 -67 -5 -75 -9 -13 -6 -15 -1 -12 32 l4 40 72 4 71 3
-77 2 -78 2 0 -32z"/>
<path d="M2243 1763 c15 -2 39 -2 55 0 15 2 2 4 -28 4 -30 0 -43 -2 -27 -4z"/>
<path d="M2243 1733 c15 -2 39 -2 55 0 15 2 2 4 -28 4 -30 0 -43 -2 -27 -4z"/>
<path d="M2428 2093 c29 -2 74 -2 100 0 26 2 2 3 -53 3 -55 0 -76 -1 -47 -3z"/>
<path d="M2388 1983 c39 -2 105 -2 145 0 39 1 7 3 -73 3 -80 0 -112 -2 -72 -3z"/>
<path d="M2360 1610 c-9 -6 -10 -10 -3 -10 6 0 15 5 18 10 8 12 4 12 -15 0z"/>
<path d="M1948 1470 c-67 -52 -116 -293 -66 -324 22 -14 35 -1 53 50 11 32 18
40 43 42 27 3 31 0 37 -30 12 -62 16 -68 40 -68 38 0 47 51 30 164 -16 106
-26 137 -55 166 -25 25 -50 25 -82 0z m56 -92 c14 -55 1 -77 -46 -78 -11 0
-10 32 3 69 13 36 34 41 43 9z"/>
<path d="M2380 1464 c-6 -14 -10 -34 -10 -44 0 -22 -39 -35 -96 -31 -27 2 -45
-3 -53 -13 -17 -20 -31 -20 -31 -1 0 21 -27 30 -45 15 -23 -19 -21 -210 3
-239 28 -34 44 -12 51 67 8 87 28 115 77 106 18 -3 34 -1 38 5 4 6 15 11 25
11 15 0 16 -8 13 -65 -7 -111 12 -145 81 -145 51 0 70 11 65 36 -2 13 -13 20
-35 22 -39 4 -47 25 -38 97 5 46 10 53 38 66 42 18 42 43 1 47 -26 3 -31 7
-27 22 15 59 -37 99 -57 44z"/>
<path d="M2543 1475 c-26 -20 -4 -42 26 -26 12 7 21 16 21 20 0 16 -28 20 -47
6z"/>
<path d="M2865 1466 c-49 -74 -33 -336 20 -336 7 0 17 5 20 10 9 14 9 326 0
340 -10 16 -23 12 -40 -14z"/>
<path d="M2690 1407 c-14 -6 -35 -32 -47 -57 -49 -96 -12 -220 66 -220 41 0
81 35 81 71 0 33 -14 37 -48 13 -35 -24 -52 -11 -52 38 0 71 38 120 50 66 8
-31 46 -37 55 -8 10 31 -4 78 -28 95 -26 18 -44 19 -77 2z"/>
<path d="M3001 1399 c-93 -87 -47 -277 61 -255 61 12 120 96 68 96 -12 0 -31
-7 -45 -16 -19 -13 -28 -13 -47 -3 -22 12 -22 13 18 30 51 21 74 52 74 101 0
27 -6 41 -22 52 -32 23 -80 20 -107 -5z m74 -59 c0 -16 -48 -44 -53 -30 -2 5
2 18 8 30 12 23 45 23 45 0z"/>
<path d="M2536 1388 c-22 -31 -23 -205 -2 -234 14 -18 16 -18 33 -1 14 14 19
37 21 116 5 127 -15 172 -52 119z"/>
<path d="M1753 1000 c-45 -27 -75 -91 -81 -171 -6 -81 9 -130 49 -164 40 -33
88 -33 128 1 53 44 35 78 -31 61 -38 -9 -43 -8 -61 14 -15 19 -18 34 -14 74 7
70 23 105 46 105 15 0 20 -8 23 -32 3 -29 6 -33 33 -33 28 0 30 3 33 39 4 52
-4 81 -30 106 -27 25 -54 25 -95 0z"/>
<path d="M2586 991 c-35 -39 -45 -229 -16 -305 12 -31 38 -45 51 -25 5 8 9 87
9 175 0 130 -3 163 -14 167 -8 3 -21 -2 -30 -12z"/>
<path d="M2137 925 c-14 -13 -17 -36 -17 -121 0 -107 9 -144 35 -144 23 0 35
34 35 97 0 37 6 67 16 81 27 39 37 16 30 -77 -7 -94 1 -123 30 -105 26 16 45
81 47 161 1 57 -2 76 -17 92 -22 24 -63 27 -90 6 -16 -12 -20 -12 -35 7 -16
19 -18 19 -34 3z"/>
<path d="M2410 927 c-14 -6 -35 -32 -47 -57 -49 -96 -12 -220 66 -220 41 0 81
35 81 71 0 33 -14 37 -48 13 -35 -24 -52 -11 -52 38 0 71 38 120 50 66 8 -31
46 -37 55 -8 10 31 -4 78 -28 95 -26 18 -44 19 -77 2z"/>
<path d="M3181 919 c-93 -87 -47 -277 61 -255 61 12 120 96 68 96 -12 0 -31
-7 -44 -15 -23 -15 -56 -11 -56 6 0 5 15 15 34 23 43 18 66 51 66 98 0 27 -6
41 -22 52 -32 23 -80 20 -107 -5z m74 -59 c0 -16 -48 -44 -53 -30 -2 5 2 18 8
30 12 23 45 23 45 0z"/>
<path d="M1940 902 c-51 -51 -53 -164 -4 -222 45 -52 105 -37 143 37 16 31 14
129 -4 163 -30 57 -90 67 -135 22z m81 -69 c12 -32 6 -100 -11 -117 -29 -29
-55 78 -30 125 15 27 29 24 41 -8z"/>
<path d="M2696 909 c-27 -22 -35 -54 -13 -62 6 -2 26 3 44 11 37 17 63 11 63
-17 0 -14 -9 -21 -34 -25 -41 -8 -96 -56 -96 -84 0 -53 63 -87 111 -61 16 8
25 7 38 -5 44 -40 66 -1 58 104 -5 81 -25 133 -56 150 -32 17 -86 12 -115 -11z
m104 -155 c0 -19 -41 -35 -55 -22 -7 6 -2 16 14 29 24 20 41 17 41 -7z"/>
<path d="M2893 903 c-15 -40 41 -209 81 -242 34 -29 80 33 126 169 19 56 20
65 6 78 -22 22 -43 2 -78 -75 -15 -35 -30 -63 -32 -63 -3 0 -12 24 -21 53 -22
65 -41 97 -61 97 -8 0 -17 -7 -21 -17z"/>
</g>
</svg>
